<?xml version="1.0" encoding="utf-8"?>
<!-- Generator: Adobe Illustrator 16.0.0, SVG Export Plug-In . SVG Version: 6.00 Build 0)  -->
<!DOCTYPE svg PUBLIC "-//W3C//DTD SVG 1.1//EN" "http://www.w3.org/Graphics/SVG/1.1/DTD/svg11.dtd">
<svg version="1.1" id="Layer_1" xmlns="http://www.w3.org/2000/svg" xmlns:xlink="http://www.w3.org/1999/xlink" x="0px" y="0px"
	 width="26px" height="26px" viewBox="0 0 26 26" enable-background="new 0 0 26 26" xml:space="preserve">
<path fill="#666666" d="M13.002,3C7.475,3,3,7.477,3,13s4.475,10,10.002,10C18.523,23,23,18.523,23,13S18.523,3,13.002,3z
	 M18.896,14.282h-4.611v4.616c0,0.707-0.578,1.281-1.283,1.281c-0.711,0-1.283-0.574-1.283-1.281v-4.616H7.104
	c-0.711,0-1.283-0.574-1.283-1.282c0-0.709,0.572-1.28,1.283-1.28h4.615V7.102c0-0.708,0.572-1.279,1.283-1.279
	c0.705,0,1.283,0.571,1.283,1.279v4.618h4.611c0.707,0,1.281,0.571,1.281,1.28C20.178,13.708,19.604,14.282,18.896,14.282z"/>
</svg>
