<?xml version="1.0" encoding="utf-8"?>
<!-- Generator: Adobe Illustrator 16.0.0, SVG Export Plug-In . SVG Version: 6.00 Build 0)  -->
<!DOCTYPE svg PUBLIC "-//W3C//DTD SVG 1.1//EN" "http://www.w3.org/Graphics/SVG/1.1/DTD/svg11.dtd">
<svg version="1.1" id="Layer_1" xmlns="http://www.w3.org/2000/svg" xmlns:xlink="http://www.w3.org/1999/xlink" x="0px" y="0px"
	 width="100px" height="100px" viewBox="0 0 100 100" enable-background="new 0 0 100 100" xml:space="preserve">
<g>
	<path fill="#33CDCA" d="M100,50c0-27.617-22.387-50-50-50C22.383,0,0,22.383,0,50c0,27.609,22.383,50,50,50
		C77.613,100,100,77.609,100,50z"/>
	<g>
		<path fill="none" d="M77.527,91.742c0.059-0.047,0.121-0.078,0.18-0.125l-0.102,0.023L77.527,91.742z"/>
		<path fill="#66D9D7" d="M86.289,15.602c0.027,0.078,0.043,0.125,0.043,0.125s2.805,7.398,2.527,21.148
			c0,0,15.258,11.195,5.98,35.258C98.141,65.461,100,57.945,100,50C100,36.672,94.785,24.562,86.289,15.602z"/>
		<polygon fill="#008F92" points="67.465,30.133 88.859,36.875 62.988,9.875 		"/>
		<path fill="#66D9D7" d="M56.039,59.797l4.586,7.602l27.891-26.68c0.223-1.336,0.348-2.625,0.344-3.844l-21.395-6.742
			C67.465,30.133,66.668,58.398,56.039,59.797z"/>
		<path fill="#01C0BD" d="M88.859,36.875c0.277-13.75-2.527-21.148-2.527-21.148s-0.016-0.047-0.043-0.125
			c-3.352-3.531-7.211-6.578-11.465-9.016L62.988,9.875L88.859,36.875z"/>
		<path fill="#66D9D7" d="M43.008,65.805l7.594,1.781l0,0l10.371,2.43l-0.348-2.617l-21.609-6.031c0,0-11.883-1.727-16.117-19.281
			l-3.734-15.82L2.938,66.922c0.141,0.391,0.285,0.773,0.43,1.156C4.43,67.516,19.418,59.93,43.008,65.805z"/>
		<path fill="#33CDCA" d="M60.973,70.016l14.715-0.492c0,0,10.754-16.391,12.828-28.805l-27.891,26.68L60.973,70.016z"/>
		<path fill="#00FCE5" d="M88.859,36.875c0.004,1.219-0.121,2.508-0.344,3.844c-2.074,12.414-12.828,28.805-12.828,28.805
			l16.375,7.516c1.016-1.578,1.941-3.211,2.777-4.906C104.117,48.07,88.859,36.875,88.859,36.875z"/>
		<path fill="#01C0BD" d="M43.008,65.805C19.418,59.93,4.43,67.516,3.367,68.078c0.504,1.297,1.059,2.562,1.664,3.805
			C27.391,99.742,43.008,65.805,43.008,65.805z"/>
		<path fill="#01C0BD" d="M70.746,89.367c0,0-16.949,9.672-18.961,2.273s9.188-21.625,9.188-21.625l-10.371-2.43L32.809,96.961
			C38.168,98.93,43.957,100,50,100c10.172,0,19.633-3.047,27.527-8.258l0.078-0.102L70.746,89.367z"/>
		<path fill="#66D9D7" d="M51.785,91.641c2.012,7.398,18.961-2.273,18.961-2.273l-9.773-19.352
			C60.973,70.016,49.773,84.242,51.785,91.641z"/>
		<path fill="#33CDCA" d="M79.25,90.547c5.066-3.656,9.418-8.242,12.812-13.508l-16.375-7.516L79.25,90.547z"/>
		<path fill="#00908E" d="M60.973,70.016l9.773,19.352l6.859,2.273l0.102-0.023c0.52-0.344,1.035-0.703,1.543-1.07l-3.562-21.023
			L60.973,70.016z"/>
		<path fill="#59FFFF" d="M50.602,67.586L50.602,67.586l-7.594-1.781c0,0-15.617,33.938-37.977,6.078
			c5.637,11.555,15.598,20.625,27.777,25.078L50.602,67.586z"/>
		<polygon fill="#3C8F8E" points="32.227,33.336 43.898,39.656 67.465,30.133 30.609,27.18 19.164,26.266 32.227,33.336 		"/>
		<path fill="#59FFFF" d="M55.973,59.805c0,0-19.098,5.258-23.746-26.469l-13.062-7.07l3.734,15.82
			c4.234,17.555,16.117,19.281,16.117,19.281l21.609,6.031l-4.586-7.602C56.016,59.797,55.996,59.805,55.973,59.805z"/>
		<path fill="#33CDCA" d="M55.973,59.805c0.023,0,0.043-0.008,0.066-0.008c10.629-1.398,11.426-29.664,11.426-29.664l-23.566,9.523
			L55.973,59.805z"/>
		<path fill="#46E9E9" d="M32.227,33.336L32.227,33.336c4.648,31.727,23.746,26.469,23.746,26.469L43.898,39.656L32.227,33.336z"/>
		<path fill="#01F3EE" d="M2.52,34.289C0.887,39.227,0,44.508,0,50c0,5.938,1.035,11.633,2.938,16.922l16.227-40.656L2.52,34.289z"
			/>
		<path fill="#01A3A8" d="M62.988,9.875l-13.062,3.586c0,0-12.027,4.977-22.414-2.805l0,0l3.098,16.523l36.855,2.953L62.988,9.875z"
			/>
		<path fill="#01999D" d="M30.609,27.18l-3.098-16.523l0,0c-1.23-0.922-2.434-2.016-3.594-3.328
			c-2.605,1.602-5.055,3.43-7.316,5.461l2.562,13.477L30.609,27.18z"/>
		<path fill="#01C0BD" d="M11.098,18.586c-3.738,4.625-6.668,9.93-8.578,15.703l16.645-8.023L11.098,18.586z"/>
		<path fill="#01A3A8" d="M16.602,12.789c-1.984,1.781-3.824,3.719-5.504,5.797l8.066,7.68L16.602,12.789z"/>
		<path fill="#66D9D7" d="M27.512,10.656c10.387,7.781,22.414,2.805,22.414,2.805l13.062-3.586l-9.18-9.734
			C52.551,0.047,51.281,0,50,0c-9.559,0-18.488,2.68-26.082,7.328C25.078,8.641,26.281,9.734,27.512,10.656z"/>
		<path fill="#00908E" d="M74.824,6.586c-6.277-3.594-13.41-5.875-21.016-6.445l9.18,9.734L74.824,6.586z"/>
	</g>
</g>
</svg>
