<?xml version="1.0" encoding="utf-8"?>
<!-- Generator: Adobe Illustrator 16.0.0, SVG Export Plug-In . SVG Version: 6.00 Build 0)  -->
<!DOCTYPE svg PUBLIC "-//W3C//DTD SVG 1.1//EN" "http://www.w3.org/Graphics/SVG/1.1/DTD/svg11.dtd">
<svg version="1.1" id="Layer_1" xmlns="http://www.w3.org/2000/svg" xmlns:xlink="http://www.w3.org/1999/xlink" x="0px" y="0px"
	 width="26px" height="26px" viewBox="0 0 26 26" enable-background="new 0 0 26 26" xml:space="preserve">
<g id="All:_Checkbox_over">
	<g>
		<path fill="#404040" d="M11.336,18.106c0.497,0.565,1.224,0.886,1.975,0.886c0.021,0,0.041,0,0.063,0
			c0.771-0.014,1.505-0.381,1.986-0.977l9.714-12.184c-0.632-1.159-0.578-2.645-1.48-3.586l-10.29,12.301L8.421,8.993l-2.875,2.548
			L11.336,18.106z"/>
		<path fill="#404040" d="M18.569,0H7.432C3.327,0,0,3.323,0,7.429v11.144C0,22.674,3.327,26,7.432,26h11.141
			C22.677,26,26,22.674,26,18.569V7.429C26,3.323,22.677,0,18.569,0z M22.02,16.863c0,2.852-2.311,5.16-5.153,5.16H9.135
			c-2.846,0-5.154-2.312-5.154-5.16V9.131c0-2.847,2.31-5.153,5.154-5.153h7.731c2.846,0,5.153,2.308,5.153,5.153V16.863z"/>
	</g>
</g>
</svg>
