<?xml version="1.0" encoding="utf-8"?>
<!-- Generator: Adobe Illustrator 16.0.0, SVG Export Plug-In . SVG Version: 6.00 Build 0)  -->
<!DOCTYPE svg PUBLIC "-//W3C//DTD SVG 1.1//EN" "http://www.w3.org/Graphics/SVG/1.1/DTD/svg11.dtd">
<svg version="1.1" id="Layer_1" xmlns="http://www.w3.org/2000/svg" xmlns:xlink="http://www.w3.org/1999/xlink" x="0px" y="0px"
	 width="26px" height="26px" viewBox="0 0 26 26" enable-background="new 0 0 26 26" xml:space="preserve">
<symbol  id="All:_Trash_over" viewBox="-8 -11.5 16 19">
	<g>
		<path fill="#404040" d="M-6.855,3.404L-6.265-9.25c0-1.24,1.031-2.25,2.298-2.25h7.974c1.267,0,2.297,1.009,2.296,2.224
			l0.593,12.68H-6.855z M-2.054-8.103c0-0.292-0.224-0.527-0.5-0.527s-0.5,0.236-0.5,0.527v8.909c0,0.292,0.224,0.527,0.5,0.527
			s0.5-0.236,0.5-0.527V-8.103z M0.529-8.103c0-0.292-0.224-0.527-0.5-0.527s-0.5,0.236-0.5,0.527v8.909
			c0,0.292,0.224,0.527,0.5,0.527s0.5-0.236,0.5-0.527V-8.103z M3.111-8.103c0-0.292-0.224-0.527-0.5-0.527s-0.5,0.236-0.5,0.527
			v8.909c0,0.292,0.224,0.527,0.5,0.527s0.5-0.236,0.5-0.527V-8.103z"/>
		<path fill="#404040" d="M7.5,5.354H3.432v0.704C3.432,6.854,2.82,7.5,2.065,7.5h-4.018c-0.755,0-1.366-0.646-1.366-1.441V5.354
			H-7.5c-0.276,0-0.5-0.236-0.5-0.527c0-0.273,0.199-0.49,0.451-0.517H7.549C7.801,4.337,8,4.554,8,4.827
			C8,5.119,7.776,5.354,7.5,5.354z"/>
	</g>
</symbol>
<use xlink:href="#All:_Trash_over"  width="16" height="19" x="-8" y="-11.5" transform="matrix(1.2105 0 0 -1.2105 13 10.5791)" overflow="visible"/>
</svg>
