<?xml version="1.0" encoding="utf-8"?>
<!-- Generator: Adobe Illustrator 16.0.0, SVG Export Plug-In . SVG Version: 6.00 Build 0)  -->
<!DOCTYPE svg PUBLIC "-//W3C//DTD SVG 1.1//EN" "http://www.w3.org/Graphics/SVG/1.1/DTD/svg11.dtd">
<svg version="1.1" id="Layer_1" xmlns="http://www.w3.org/2000/svg" xmlns:xlink="http://www.w3.org/1999/xlink" x="0px" y="0px"
	 width="100px" height="100px" viewBox="0 0 100 100" enable-background="new 0 0 100 100" xml:space="preserve">
<g>
	<path fill="#66B640" d="M100,50c0-27.617-22.383-50-49.996-50C22.387,0,0,22.383,0,50c0,27.613,22.387,50,50.004,50
		C77.617,100,100,77.613,100,50z"/>
	<g>
		<rect x="2.016" y="35.914" opacity="0.3" fill="#231F20" width="0.004" height="0"/>
		
			<rect x="79.997" y="89.951" transform="matrix(-0.5882 -0.8087 0.8087 -0.5882 54.3442 207.5757)" opacity="0.3" fill="#231F20" width="0.053" height="0"/>
		<rect x="77.801" y="82.951" fill="#67B540" width="0" height="7.677"/>
		<rect x="77.801" y="82.951" opacity="0.3" fill="#231F20" width="0" height="7.677"/>
		<rect x="73.9" y="78.306" fill="#8EB73F" width="0.004" height="5.879"/>
		<rect x="73.9" y="78.306" opacity="0.3" fill="#231F20" width="0.004" height="5.879"/>
		<polygon fill="#8EB73F" points="72.133,78.727 72.094,78.672 72.133,78.727 		"/>
		<polygon opacity="0.3" fill="#231F20" points="72.133,78.727 72.094,78.672 72.133,78.727 		"/>
		<polygon fill="#99CC00" points="6.578,35.102 6.578,35.102 6.578,35.102 		"/>
		<polygon opacity="0.3" fill="#231F20" points="6.578,35.102 6.578,35.102 6.578,35.102 		"/>
		<rect x="72.172" y="78.714" fill="#4A8F3D" width="0" height="0.138"/>
		<rect x="72.172" y="78.714" opacity="0.3" fill="#231F20" width="0" height="0.138"/>
		<rect x="4.299" y="33.193" fill="#4A8F3D" width="0" height="4.63"/>
		<rect x="4.299" y="33.193" opacity="0.3" fill="#231F20" width="0" height="4.63"/>
		<path fill="#66B640" d="M72.137,40.605l25.938-4.395c-2.461-8.602-7.172-16.254-13.449-22.281L72.137,40.605z"/>
		<path opacity="0.3" fill="#231F20" d="M72.137,40.605l25.938-4.395c-2.461-8.602-7.172-16.254-13.449-22.281L72.137,40.605z"/>
		<polygon fill="#97C93E" points="82.254,61.797 98.074,36.211 98.074,36.211 72.137,40.605 		"/>
		<path fill="#ADD65D" d="M100,50c0-4.785-0.672-9.41-1.926-13.789l-15.82,25.586l17.047-3.414C99.758,55.656,100,52.855,100,50z"/>
		<polygon fill="#85BA50" points="82.254,61.797 72.094,78.672 99.297,58.383 99.301,58.383 		"/>
		<polygon fill="#78B23E" points="72.137,40.605 72.094,78.672 82.254,61.797 		"/>
		<polygon fill="#61A83D" points="72.137,40.605 63.113,65.078 72.094,78.672 		"/>
		<polygon fill="#59A03E" points="54.59,52.18 63.113,65.078 72.137,40.605 		"/>
		<polygon fill="#70B93F" points="72.137,40.605 39.863,29.891 54.59,52.18 		"/>
		<path fill="#66B640" d="M72.094,78.672l0.039,0.055l0.078,0.113l3.383,4.809l4.414,6.281l0.031,0.043
			c10.004-7.527,17.086-18.723,19.258-31.59L72.094,78.672z"/>
		<path fill="#5AA63F" d="M75.594,83.652l-3.383-4.812l-0.078-0.113l-0.039-0.055l0.379,16.004c2.668-1.348,5.199-2.922,7.566-4.703
			l-0.031-0.043L75.594,83.652z"/>
		<path fill="#4A8F3D" d="M72.094,78.672L43.531,99.586c2.117,0.273,4.277,0.414,6.473,0.414c8.078,0,15.711-1.922,22.469-5.324
			L72.094,78.672z"/>
		<path fill="#66B640" d="M54.586,52.184l8.527,12.895L54.59,52.18L39.863,29.891l-7.652,40.246l14.734-2.41
			C46.945,67.715,47.102,59.113,54.586,52.184z"/>
		<path fill="#ADD65D" d="M32.211,70.137l-21.516-9.258l32.832,38.707c0.004,0,0.004,0,0.004,0
			C43.48,99.52,33.359,86.25,32.211,70.137z"/>
		<path fill="#66B640" d="M10.695,60.879l29.168-30.988l-7.918,1.238c-1.742,8.016-10.332,14.938-10.332,14.938L2.152,64.539
			c1.715,5.656,4.406,10.887,7.875,15.5L10.695,60.879z"/>
		<path fill="#669900" d="M10.695,60.879l-0.668,19.16c7.898,10.492,19.836,17.777,33.5,19.547L10.695,60.879z"/>
		<polygon fill="#97C93E" points="39.863,29.891 10.695,60.879 32.211,70.137 		"/>
		<path fill="#8EB740" d="M72.094,78.672L57.691,89.211c0,0-11.684-7.285-10.746-21.484l0,0l-14.734,2.41
			c1.148,16.113,11.27,29.383,11.32,29.449l0,0L72.094,78.672z"/>
		<path fill="#94C239" d="M63.113,65.078l-16.168,2.648c-0.938,14.199,10.746,21.484,10.746,21.484l14.402-10.539L63.113,65.078z"/>
		<path fill="#80C139" d="M63.113,65.078l-8.527-12.895c-7.484,6.93-7.641,15.531-7.641,15.543l0,0L63.113,65.078z"/>
		<path fill="#91BD4B" d="M59.586,0.922C56.484,0.32,53.281,0,50.004,0c-3.621,0-7.152,0.387-10.551,1.117
			c9.5,0.348,16.938,4.496,16.938,4.496L59.586,0.922z"/>
		<path fill="#75A81F" d="M67.766,15.5c7.316,12.906,4.371,25.105,4.371,25.105L84.625,13.93c0-0.004,0-0.004-0.004-0.004
			L67.766,15.5z"/>
		<path fill="#669900" d="M67.766,15.5L39.863,29.891l32.273,10.715C72.137,40.605,75.082,28.406,67.766,15.5z"/>
		<polygon fill="#99CC00" points="56.391,5.613 39.863,29.891 67.766,15.5 		"/>
		<path fill="#B0D25D" d="M67.766,15.5l16.855-1.574C77.828,7.406,69.199,2.789,59.586,0.922l-3.195,4.691L67.766,15.5z"/>
		<path fill="#9AC11F" d="M31.945,31.129l7.918-1.238L30.652,3.883c-0.984,0.414-1.953,0.859-2.906,1.336
			C30.141,8.719,34.59,17.438,31.945,31.129z"/>
		<path fill="#8BAE1E" d="M6.578,35.102L6.578,35.102c0,0,0.836-10.258,7.949-20.336C8.746,20.586,4.387,27.824,2.016,35.914H2.02
			L6.578,35.102z"/>
		<path fill="#4A8F3D" d="M8.141,49.551c-1.867-5.84-1.562-14.449-1.562-14.449l0,0L2.02,35.914H2.016C0.707,40.383,0,45.109,0,50
			c0,2.121,0.137,4.211,0.391,6.266L8.141,49.551z"/>
		<path fill="#8EB740" d="M56.391,5.613c0,0-7.438-4.148-16.938-4.496c-3.047,0.656-5.988,1.586-8.801,2.766l9.211,26.008
			L56.391,5.613z"/>
		<path fill="#99CC00" d="M21.613,46.066c0,0,8.59-6.922,10.332-14.938L6.578,35.102c0,0-0.305,8.609,1.562,14.449l-7.75,6.715
			c0.355,2.836,0.949,5.602,1.762,8.273L21.613,46.066z"/>
		<path fill="#B3CC01" d="M6.578,35.102l25.367-3.973c2.645-13.691-1.805-22.41-4.199-25.91c-4.922,2.449-9.383,5.688-13.219,9.547
			C7.414,24.844,6.578,35.102,6.578,35.102z"/>
	</g>
</g>
</svg>
