<?xml version="1.0" encoding="utf-8"?>
<!-- Generator: Adobe Illustrator 16.0.0, SVG Export Plug-In . SVG Version: 6.00 Build 0)  -->
<!DOCTYPE svg PUBLIC "-//W3C//DTD SVG 1.1//EN" "http://www.w3.org/Graphics/SVG/1.1/DTD/svg11.dtd">
<svg version="1.1" id="Layer_1" xmlns="http://www.w3.org/2000/svg" xmlns:xlink="http://www.w3.org/1999/xlink" x="0px" y="0px"
	 width="1000px" height="100px" viewBox="0 0 1000 100" enable-background="new 0 0 1000 100" xml:space="preserve">
<g>
	<defs>
		<rect id="SVGID_1_" width="1001.607" height="100"/>
	</defs>
	<clipPath id="SVGID_2_">
		<use xlink:href="#SVGID_1_"  overflow="visible"/>
	</clipPath>
	<g clip-path="url(#SVGID_2_)">
		<path fill="#8BBBDC" d="M1055.894-43.555c0-93.711-195.519-555.894-555.85-555.894c-307.039,0-555.937,248.849-555.937,555.894
			c0,306.958,248.898,555.894,555.937,555.894C807.045,512.339,1055.894,263.403,1055.894-43.555z"/>
		<g>
			<path fill="none" d="M-1.396,196.088l-1.134-1.824c0.347,0.782,0.657,1.477,1.004,2.172l0.179-0.261
				C-1.346,196.175-1.346,196.175-1.396,196.088z"/>
			<path fill="none" d="M1067.295-60.402l0.228,0.087c0-0.087-0.043-0.173-0.043-0.255L1067.295-60.402z"/>
			<path fill="none" d="M173.022,405.938h-0.044H173.022z"/>
			<path fill="none" d="M831.19,402.896l-0.13,0.175c0.044-0.087,0.13-0.175,0.218-0.175H831.19z"/>
			<path fill="none" d="M1001.781,196.001c0.086-0.175,0.173-0.348,0.261-0.521l-0.435,0.26L1001.781,196.001z"/>
			<path fill="none" d="M671.979-572.343c-0.685-0.179-1.346-0.435-2.04-0.613l-0.088,0.179L671.979-572.343z"/>
			<polygon fill="none" points="952.793,-366.152 952.749,-366.152 952.662,-366.152 			"/>
			<path fill="none" d="M301.088-562.446c0.044-0.093,0.137-0.255,0.223-0.435c-0.044,0.086-0.044,0.086-0.044,0.086
				L301.088-562.446L301.088-562.446z"/>
			<polygon fill="#8BBBDB" points="299.743,257.758 299.835,257.671 299.743,257.671 			"/>
			<path fill="#8BBBDB" d="M-1.346,196.175L-1.346,196.175l-0.049-0.087C-1.346,196.175-1.346,196.175-1.346,196.175z"/>
			<path fill="#ADD6FF" d="M301.088-562.446l-0.086,0.174C301.013-562.272,301.046-562.36,301.088-562.446L301.088-562.446z"/>
			<path opacity="0.1" fill="#0066FF" enable-background="new    " d="M301.088-562.446l-0.086,0.174
				C301.013-562.272,301.046-562.36,301.088-562.446L301.088-562.446z"/>
			<polygon fill="#8BBBDB" points="299.656,257.671 299.743,257.758 299.743,257.758 299.743,257.671 			"/>
			<polygon opacity="0.3" fill="#0066FF" enable-background="new    " points="299.656,257.671 299.743,257.758 299.743,257.758 
				299.743,257.671 			"/>
			<path fill="#89C2FF" d="M215.284-369.963l85.686-192.218l0.043-0.092l0.087-0.174l0.179-0.348
				c-66.018,25.271-125.945,62.718-177.062,109.616L215.284-369.963z"/>
			<path fill="#9BCBFF" d="M301.013-562.272l-0.043,0.092l-85.686,192.218l454.568-202.825l0.088-0.179
				c-53.55-17.187-110.659-26.481-169.896-26.481c-70.051,0-137.014,12.942-198.732,36.567c-0.086,0.179-0.179,0.342-0.223,0.435
				C301.046-562.36,301.013-562.272,301.013-562.272z"/>
			<polygon fill="#C1E3F7" points="576.132,-300.134 669.852,-572.788 215.284,-369.963 			"/>
			<polygon fill="#ADD7F8" points="576.132,-300.134 14,-205 719.317,60.85 			"/>
			<path fill="#7DB2DF" d="M215.284-369.963l-91.066-83.205C17.328-355.035-50.992-215.703-55.595-60.319v0.087L215.284-369.963z"/>
			<polygon fill="#ADD7F8" points="-55.595,-60.231 124.218,125 215.284,-369.963 			"/>
			<path fill="#9BC7EA" d="M576.132-300.134l376.53-66.018l0,0h0.087c-68.401-95.892-166.464-169.021-280.77-206.191l-2.128-0.435
				L576.132-300.134z"/>
			<polygon fill="#8CBDEC" points="952.662,-366.152 576.132,-300.134 719.317,60.85 			"/>
			<path fill="#7DB2DF" d="M952.662-366.152L719.317,60.85l347.978-121.251l0.185-0.179c-14.582-82.95-67.6-239.64-114.687-305.571
				H952.662L952.662-366.152z"/>
			<path fill="#ADD7F8" d="M719.317,60.85l282.301,134.891l0.435-0.25c34.516-72.45,53.841-153.49,53.841-239.045
				c0-33.006,17.134,14.683,11.618-16.76l-0.217-0.087L719.317,60.85z"/>
			<polygon fill="#7DB2DF" points="1001.607,195.74 719.317,60.85 735.083,206.945 			"/>
			<path fill="#70AAE2" d="M1001.607,195.74l-266.524,11.205l96.107,195.951h0.088c72.353-53.852,131.199-124.814,170.503-206.896
				L1001.607,195.74z"/>
			<path fill="#8CBDEC" d="M831.061,403.071l0.13-0.175l-96.107-195.951L336.745,487.933
				c51.643,15.808,106.456,24.406,163.299,24.406C624.033,512.339,738.557,471.688,831.061,403.071z"/>
			<path fill="#8BBBDC" d="M215-108l70.503,237.207C500.043,183.492,719.317,60.85,719.317,60.85L215-108z"/>
			<path fill="#8BBBDC" d="M299.743,257.758l-0.086-0.087C155.949,276.518,54.975,232.568-1.346,196.175l0,0l-0.179,0.261
				c40.047,83.558,100.359,155.476,174.493,209.502h0.042L299.743,257.758z"/>
			<path fill="#9BC7EA" d="M735.083,206.945L719.317,60.85L334.399,487.236c0.776,0.262,1.568,0.435,2.345,0.696L735.083,206.945z"
				/>
			<path fill="#61A1E6" d="M299.743,257.758l-126.721,148.18l0,0c47.729,34.83,101.195,62.19,158.684,80.431L299.743,257.758z"/>
			<path fill="#C1E3F7" d="M719.317,60.85c0,0-490.093,69.43-560.317,85.15l140.845,111.671l-0.086,0.087l0,0l31.963,228.61
				c0.907,0.261,1.776,0.608,2.687,0.868L719.317,60.85z"/>
			<path fill="#8CBDEC" d="M-1.396,196.088l0.049,0.087l286.849-66.958l-70.219-499.169L124.218,125L-55.595-60.231v-0.087
				c-0.163,5.56-0.299,11.118-0.299,16.764c0,85.121,19.201,165.726,53.375,237.818L-1.396,196.088z"/>
		</g>
	</g>
</g>
</svg>
