<?xml version="1.0" encoding="utf-8"?>
<!-- Generator: Adobe Illustrator 16.0.0, SVG Export Plug-In . SVG Version: 6.00 Build 0)  -->
<!DOCTYPE svg PUBLIC "-//W3C//DTD SVG 1.1//EN" "http://www.w3.org/Graphics/SVG/1.1/DTD/svg11.dtd">
<svg version="1.1" id="Layer_1" xmlns="http://www.w3.org/2000/svg" xmlns:xlink="http://www.w3.org/1999/xlink" x="0px" y="0px"
	 width="100px" height="100px" viewBox="0 0 100 100" enable-background="new 0 0 100 100" xml:space="preserve">
<g>
	<g>
		
			<circle fill="none" stroke="#81C4F2" stroke-width="3" stroke-linecap="round" stroke-linejoin="round" stroke-miterlimit="10" cx="50" cy="50.131" r="45.662"/>
		<g>
			<path fill="none" stroke="#81C4F2" stroke-width="3" stroke-linecap="round" stroke-linejoin="round" stroke-miterlimit="10" d="
				M8.816,69.819L8.72,69.665c0.027,0.061,0.056,0.121,0.085,0.183l0.014-0.023C8.816,69.822,8.816,69.819,8.816,69.819z"/>
			<path fill="none" stroke="#81C4F2" stroke-width="3" stroke-linecap="round" stroke-linejoin="round" stroke-miterlimit="10" d="
				M94.957,42.172l0.017,0.013c-0.003-0.008-0.003-0.017-0.005-0.021L94.957,42.172z"/>
			
				<polygon fill="none" stroke="#81C4F2" stroke-width="3" stroke-linecap="round" stroke-linejoin="round" stroke-miterlimit="10" points="
				23.142,87.053 23.137,87.053 23.142,87.058 			"/>
			<path fill="none" stroke="#81C4F2" stroke-width="3" stroke-linecap="round" stroke-linejoin="round" stroke-miterlimit="10" d="
				M77.202,86.802l-0.011,0.01c0.007,0,0.014-0.008,0.021-0.01H77.202z"/>
			<path fill="none" stroke="#81C4F2" stroke-width="3" stroke-linecap="round" stroke-linejoin="round" stroke-miterlimit="10" d="
				M91.216,69.81c0.007-0.017,0.014-0.032,0.021-0.046l-0.034,0.022L91.216,69.81z"/>
			<path fill="none" stroke="#81C4F2" stroke-width="3" stroke-linecap="round" stroke-linejoin="round" stroke-miterlimit="10" d="
				M64.127,6.698c-0.056-0.019-0.113-0.038-0.173-0.054L63.95,6.661L64.127,6.698z"/>
			
				<polygon fill="none" stroke="#81C4F2" stroke-width="3" stroke-linecap="round" stroke-linejoin="round" stroke-miterlimit="10" points="
				87.196,23.634 87.187,23.628 87.178,23.63 			"/>
			<path fill="none" stroke="#81C4F2" stroke-width="3" stroke-linecap="round" stroke-linejoin="round" stroke-miterlimit="10" d="
				M33.662,7.506c0.004-0.008,0.009-0.018,0.016-0.031c-0.002,0.001-0.002,0.001-0.002,0.001l-0.014,0.032V7.506z"/>
			
				<polygon fill="none" stroke="#81C4F2" stroke-width="3" stroke-linecap="round" stroke-linejoin="round" stroke-miterlimit="10" points="
				8.819,69.824 8.819,69.822 8.816,69.819 			"/>
			<path fill="none" stroke="#81C4F2" stroke-width="3" stroke-linecap="round" stroke-linejoin="round" stroke-miterlimit="10" d="
				M33.662,7.508l-0.009,0.016c0.002,0,0.002-0.008,0.009-0.017V7.508z"/>
			
				<path opacity="0.1" fill="none" stroke="#81C4F2" stroke-width="3" stroke-linecap="round" stroke-linejoin="round" stroke-miterlimit="10" d="
				M33.662,7.508l-0.009,0.016c0.002,0,0.002-0.008,0.009-0.017V7.508z"/>
			<path fill="none" stroke="#81C4F2" stroke-width="3" stroke-linecap="round" stroke-linejoin="round" stroke-miterlimit="10" d="
				M26.61,23.318l7.04-15.791c0,0,0.002,0,0.002-0.003l0.009-0.016l0.014-0.031c-5.422,2.075-10.345,5.154-14.543,9.009
				L26.61,23.318z"/>
			<path fill="none" stroke="#81C4F2" stroke-width="3" stroke-linecap="round" stroke-linejoin="round" stroke-miterlimit="10" d="
				M33.652,7.523c0,0.003-0.002,0.003-0.002,0.003l-7.04,15.791L63.95,6.661l0.004-0.017c-4.396-1.412-9.086-2.177-13.953-2.177
				c-5.753,0-11.257,1.067-16.323,3.008c-0.007,0.014-0.012,0.023-0.016,0.031C33.655,7.516,33.655,7.523,33.652,7.523z"/>
			
				<polygon fill="none" stroke="#81C4F2" stroke-width="3" stroke-linecap="round" stroke-linejoin="round" stroke-miterlimit="10" points="
				56.253,29.057 63.95,6.661 26.61,23.318 			"/>
			
				<polygon fill="none" stroke="#81C4F2" stroke-width="3" stroke-linecap="round" stroke-linejoin="round" stroke-miterlimit="10" points="
				56.253,29.057 26.61,23.318 68.013,58.704 			"/>
			<path fill="none" stroke="#81C4F2" stroke-width="3" stroke-linecap="round" stroke-linejoin="round" stroke-miterlimit="10" d="
				M26.61,23.318l-7.479-6.832c-8.779,8.059-14.395,19.507-14.77,32.27h0.002L26.61,23.318z"/>
			<path fill="none" stroke="#81C4F2" stroke-width="3" stroke-linecap="round" stroke-linejoin="round" stroke-miterlimit="10" d="
				M56.253,29.057l30.925-5.427l0,0l0.009-0.002c-5.617-7.87-13.67-13.879-23.06-16.93L63.95,6.661L56.253,29.057z"/>
			
				<polygon fill="none" stroke="#81C4F2" stroke-width="3" stroke-linecap="round" stroke-linejoin="round" stroke-miterlimit="10" points="
				87.178,23.63 56.253,29.057 68.013,58.704 			"/>
			<path fill="none" stroke="#81C4F2" stroke-width="3" stroke-linecap="round" stroke-linejoin="round" stroke-miterlimit="10" d="
				M87.178,23.63L68.013,58.704l26.944-16.532l0.012-0.008c-1.201-6.818-3.912-13.114-7.772-18.53L87.178,23.63L87.178,23.63z"/>
			<path fill="none" stroke="#81C4F2" stroke-width="3" stroke-linecap="round" stroke-linejoin="round" stroke-miterlimit="10" d="
				M68.013,58.704l23.189,11.082l0.034-0.022c2.834-5.948,4.426-12.606,4.426-19.633c0-2.713-0.238-5.368-0.688-7.945l-0.017-0.013
				L68.013,58.704z"/>
			
				<polygon fill="none" stroke="#81C4F2" stroke-width="3" stroke-linecap="round" stroke-linejoin="round" stroke-miterlimit="10" points="
				91.202,69.786 68.013,58.704 69.311,75.706 			"/>
			<path fill="none" stroke="#81C4F2" stroke-width="3" stroke-linecap="round" stroke-linejoin="round" stroke-miterlimit="10" d="
				M91.202,69.786l-21.892,5.92l7.892,11.096h0.01c5.944-4.42,10.776-10.249,14.004-16.992L91.202,69.786z"/>
			<path fill="none" stroke="#81C4F2" stroke-width="3" stroke-linecap="round" stroke-linejoin="round" stroke-miterlimit="10" d="
				M77.191,86.812l0.011-0.01l-7.892-11.096L36.59,93.791c4.241,1.297,8.742,1.999,13.411,1.999
				C60.186,95.79,69.596,92.455,77.191,86.812z"/>
			<path fill="none" stroke="#81C4F2" stroke-width="3" stroke-linecap="round" stroke-linejoin="round" stroke-miterlimit="10" d="
				M68.013,58.704L26.61,23.318L42.38,58.32"/>
			<path fill="none" stroke="#81C4F2" stroke-width="3" stroke-linecap="round" stroke-linejoin="round" stroke-miterlimit="10" d="
				M69.311,75.706l-1.298-17.002L36.395,93.729c0.067,0.02,0.13,0.038,0.195,0.062L69.311,75.706z"/>
			<path fill="none" stroke="#81C4F2" stroke-width="3" stroke-linecap="round" stroke-linejoin="round" stroke-miterlimit="10" d="
				M42.38,58.32L23.142,87.053v0.005c3.919,2.854,8.308,5.103,13.034,6.603"/>
			<path fill="none" stroke="#81C4F2" stroke-width="3" stroke-linecap="round" stroke-linejoin="round" stroke-miterlimit="10" d="
				M8.816,69.819l0.002,0.003L42.38,58.32L26.61,23.318L42.38,58.32L4.364,48.755H4.362c-0.013,0.458-0.024,0.916-0.024,1.375
				c0,6.992,1.576,13.612,4.382,19.534L8.816,69.819z"/>
		</g>
	</g>
	
		<line fill="none" stroke="#81C4F2" stroke-width="3" stroke-linecap="round" stroke-linejoin="round" stroke-miterlimit="10" x1="42.38" y1="58.32" x2="36.59" y2="93.791"/>
	
		<line fill="none" stroke="#81C4F2" stroke-width="3" stroke-linecap="round" stroke-linejoin="round" stroke-miterlimit="10" x1="42.38" y1="58.32" x2="68.013" y2="58.704"/>
</g>
</svg>
