<?xml version="1.0" encoding="utf-8"?>
<!-- Generator: Adobe Illustrator 16.0.0, SVG Export Plug-In . SVG Version: 6.00 Build 0)  -->
<!DOCTYPE svg PUBLIC "-//W3C//DTD SVG 1.1//EN" "http://www.w3.org/Graphics/SVG/1.1/DTD/svg11.dtd">
<svg version="1.1" id="Layer_1" xmlns="http://www.w3.org/2000/svg" xmlns:xlink="http://www.w3.org/1999/xlink" x="0px" y="0px"
	 width="100px" height="100px" viewBox="0 0 100 100" enable-background="new 0 0 100 100" xml:space="preserve">
<g>
	<path fill="#949494" d="M100,49.835c0-27.613-22.383-50-49.996-50C22.387-0.165,0,22.222,0,49.835c0,27.614,22.387,50,50.004,50
		C77.617,99.836,100,77.449,100,49.835z"/>
	<g>
		<path fill="none" d="M52.859,68.533c0.18-0.051,0.355-0.104,0.531-0.154C53.215,68.43,53.039,68.482,52.859,68.533z"/>
		<path fill="none" d="M54.355,68.084c0.148-0.047,0.297-0.094,0.441-0.143C54.652,67.99,54.504,68.037,54.355,68.084z"/>
		<path fill="none" d="M52.191,68.721c0.145-0.039,0.289-0.08,0.434-0.121C52.48,68.641,52.336,68.682,52.191,68.721z"/>
		<path fill="none" d="M53.516,68.34c0.219-0.062,0.43-0.129,0.645-0.195C53.945,68.211,53.734,68.277,53.516,68.34z"/>
		<path fill="none" d="M59.93,66.045c0.152-0.062,0.301-0.127,0.449-0.189C60.23,65.918,60.082,65.982,59.93,66.045z"/>
		<path fill="none" d="M49.156,69.465c0.176-0.039,0.355-0.078,0.531-0.117C49.512,69.387,49.332,69.426,49.156,69.465z"/>
		<path fill="none" d="M50.738,69.1c0.168-0.043,0.34-0.084,0.508-0.127C51.078,69.016,50.906,69.057,50.738,69.1z"/>
		<path fill="none" d="M49.859,69.309c0.234-0.053,0.465-0.107,0.695-0.164C50.324,69.201,50.094,69.256,49.859,69.309z"/>
		<path fill="none" d="M58.805,66.502c0.125-0.049,0.25-0.1,0.371-0.146C59.055,66.402,58.93,66.453,58.805,66.502z"/>
		<path fill="none" d="M58.242,66.723c0.121-0.047,0.238-0.094,0.359-0.141C58.48,66.629,58.363,66.676,58.242,66.723z"/>
		<path fill="none" d="M59.348,66.285c0.176-0.072,0.348-0.143,0.52-0.213C59.695,66.143,59.523,66.213,59.348,66.285z"/>
		<path fill="none" d="M48.434,69.615c0.156-0.031,0.312-0.064,0.465-0.098C48.746,69.551,48.59,69.584,48.434,69.615z"/>
		<path fill="none" d="M55.035,67.865c0.133-0.043,0.266-0.088,0.395-0.131C55.301,67.777,55.168,67.822,55.035,67.865z"/>
		<path fill="none" d="M55.668,67.654c0.137-0.045,0.27-0.092,0.402-0.137C55.938,67.562,55.805,67.609,55.668,67.654z"/>
		<path fill="none" d="M56.875,67.232c0.195-0.07,0.391-0.143,0.582-0.213C57.266,67.09,57.07,67.162,56.875,67.232z"/>
		<path fill="none" d="M56.281,67.443c0.18-0.062,0.355-0.127,0.531-0.189C56.637,67.316,56.461,67.381,56.281,67.443z"/>
		<path fill="none" d="M51.492,68.908c0.148-0.039,0.297-0.078,0.441-0.117C51.789,68.83,51.641,68.869,51.492,68.908z"/>
		<path fill="none" d="M36.109,70.379c0.09,0.008,0.18,0.014,0.27,0.021C36.289,70.393,36.199,70.387,36.109,70.379z"/>
		<path fill="none" d="M34.883,70.238c0.066,0.008,0.129,0.018,0.191,0.025C35.012,70.256,34.949,70.246,34.883,70.238z"/>
		<path fill="none" d="M33.715,70.061c0.102,0.018,0.207,0.035,0.309,0.053C33.922,70.096,33.816,70.078,33.715,70.061z"/>
		<path fill="none" d="M40.352,70.531c0.168-0.004,0.336-0.008,0.504-0.012C40.688,70.523,40.52,70.527,40.352,70.531z"/>
		<path fill="none" d="M37.184,70.461c0.098,0.008,0.195,0.014,0.293,0.02C37.379,70.475,37.281,70.469,37.184,70.461z"/>
		<path fill="none" d="M30.27,69.277c0.102,0.029,0.199,0.057,0.297,0.084C30.469,69.334,30.371,69.307,30.27,69.277z"/>
		<path fill="none" d="M32.66,69.867c0.066,0.014,0.133,0.023,0.199,0.037C32.793,69.891,32.727,69.881,32.66,69.867z"/>
		<path fill="none" d="M31.367,69.57c0.086,0.023,0.176,0.047,0.266,0.068C31.543,69.617,31.453,69.594,31.367,69.57z"/>
		<path fill="none" d="M41.906,70.473c0.254-0.016,0.508-0.031,0.762-0.051C42.414,70.441,42.16,70.457,41.906,70.473z"/>
		<path fill="none" d="M45.223,70.152c0.184-0.023,0.359-0.049,0.539-0.074C45.582,70.104,45.406,70.129,45.223,70.152z"/>
		<path fill="none" d="M45.969,70.047c0.246-0.035,0.488-0.074,0.734-0.115C46.457,69.973,46.215,70.012,45.969,70.047z"/>
		<path fill="none" d="M41.137,70.51c0.18-0.008,0.355-0.016,0.535-0.025C41.492,70.494,41.316,70.502,41.137,70.51z"/>
		<path fill="none" d="M46.859,69.906c0.191-0.031,0.383-0.066,0.574-0.1C47.242,69.84,47.051,69.875,46.859,69.906z"/>
		<path fill="none" d="M44.469,70.246c0.16-0.018,0.324-0.039,0.484-0.059C44.793,70.207,44.629,70.229,44.469,70.246z"/>
		<path fill="none" d="M43.68,70.332c0.172-0.018,0.34-0.035,0.508-0.053C44.02,70.297,43.852,70.314,43.68,70.332z"/>
		<path fill="none" d="M47.688,69.758c0.16-0.029,0.316-0.059,0.477-0.09C48.004,69.699,47.848,69.729,47.688,69.758z"/>
		<path fill="none" d="M42.766,70.414c0.219-0.018,0.441-0.035,0.66-0.057C43.207,70.379,42.984,70.396,42.766,70.414z"/>
		<path fill="none" d="M57.645,66.949c0.129-0.049,0.258-0.098,0.387-0.146C57.902,66.852,57.773,66.9,57.645,66.949z"/>
		<path fill="none" d="M66.332,62.961c0.043-0.023,0.082-0.047,0.121-0.068C66.414,62.914,66.375,62.938,66.332,62.961z"/>
		<path fill="none" d="M66.98,62.592c0.023-0.014,0.047-0.029,0.066-0.041C67.027,62.562,67.004,62.578,66.98,62.592z"/>
		<path fill="none" d="M67.141,62.496c0.012-0.008,0.016-0.012,0.023-0.014C67.156,62.484,67.148,62.49,67.141,62.496z"/>
		<path fill="none" d="M66.527,62.852c0.035-0.021,0.07-0.041,0.105-0.061C66.598,62.811,66.562,62.83,66.527,62.852z"/>
		<path fill="none" d="M66.832,62.68c0.043-0.027,0.082-0.051,0.117-0.07C66.914,62.629,66.875,62.652,66.832,62.68z"/>
		<path fill="none" d="M67.176,62.475c0.008-0.004,0.012-0.008,0.012-0.008S67.184,62.471,67.176,62.475z"/>
		<path fill="none" d="M66.691,62.758c0.043-0.025,0.086-0.049,0.125-0.07C66.777,62.709,66.734,62.732,66.691,62.758z"/>
		<path fill="none" d="M67.07,62.537c0.016-0.01,0.031-0.018,0.047-0.027C67.102,62.52,67.086,62.527,67.07,62.537z"/>
		<polygon fill="none" points="47.695,-0.11 47.691,-0.11 47.695,-0.106 		"/>
		<polygon fill="none" points="40.883,99.004 40.887,99.004 40.891,99 		"/>
		<path fill="none" d="M60.547,65.783c0.113-0.047,0.219-0.094,0.328-0.141C60.766,65.689,60.66,65.736,60.547,65.783z"/>
		<path fill="none" d="M40.066,70.535c-0.176,0.004-0.355,0.004-0.531,0.004C39.711,70.539,39.891,70.539,40.066,70.535z"/>
		<path fill="none" d="M39.289,70.539c-0.258-0.002-0.516-0.006-0.777-0.012l0,0C38.773,70.533,39.031,70.537,39.289,70.539z"/>
		<path fill="none" d="M15.289,85.801l-0.012,0.004c0.008,0.008,0.012,0.016,0.02,0.023L15.289,85.801z"/>
		<path fill="none" d="M15.004,14.132c-0.043,0.041-0.086,0.082-0.129,0.125l0.172,0.01L15.004,14.132z"/>
		<path fill="none" d="M62.523,64.898c0.117-0.053,0.227-0.105,0.34-0.156C62.75,64.793,62.641,64.846,62.523,64.898z"/>
		<path fill="none" d="M63.812,64.281c0.09-0.043,0.176-0.088,0.266-0.133C63.988,64.193,63.902,64.238,63.812,64.281z"/>
		<path fill="none" d="M63.426,64.471c0.082-0.041,0.164-0.08,0.246-0.119C63.59,64.391,63.508,64.43,63.426,64.471z"/>
		<path fill="none" d="M63.008,64.672c0.09-0.043,0.18-0.086,0.266-0.127C63.188,64.586,63.098,64.629,63.008,64.672z"/>
		<path fill="none" d="M66.109,63.086c0.051-0.029,0.105-0.059,0.152-0.086C66.215,63.027,66.16,63.057,66.109,63.086z"/>
		<path fill="none" d="M62,65.141c0.148-0.066,0.293-0.133,0.438-0.199C62.293,65.008,62.148,65.074,62,65.141z"/>
		<path fill="none" d="M61.539,65.348c0.109-0.047,0.215-0.096,0.32-0.143C61.754,65.252,61.648,65.301,61.539,65.348z"/>
		<path fill="none" d="M65.547,63.391c0.07-0.037,0.137-0.074,0.203-0.109C65.684,63.316,65.617,63.354,65.547,63.391z"/>
		<path fill="none" d="M64.957,63.701c0.066-0.035,0.133-0.068,0.195-0.102C65.09,63.633,65.023,63.666,64.957,63.701z"/>
		<path fill="none" d="M64.605,63.883c0.082-0.041,0.16-0.082,0.238-0.123C64.766,63.801,64.688,63.842,64.605,63.883z"/>
		<path fill="none" d="M65.266,63.539c0.062-0.033,0.125-0.064,0.184-0.098C65.391,63.475,65.328,63.506,65.266,63.539z"/>
		<path fill="none" d="M61.062,65.559c0.102-0.043,0.203-0.088,0.305-0.131C61.266,65.471,61.164,65.516,61.062,65.559z"/>
		<path fill="none" d="M64.172,64.102c0.117-0.059,0.234-0.117,0.344-0.172C64.406,63.984,64.289,64.043,64.172,64.102z"/>
		<path fill="none" d="M65.805,63.252c0.082-0.045,0.16-0.088,0.234-0.129C65.965,63.164,65.887,63.207,65.805,63.252z"/>
		<polygon fill="#9C9C9C" points="47.695,-0.106 26.273,15.921 28.5,56.697 45.109,26.333 		"/>
		<polygon fill="#7D7D7D" points="82.32,28.964 47.695,-0.106 45.109,26.333 		"/>
		<polygon fill="#5D5D5D" points="65.348,37.71 82.32,28.964 45.109,26.333 		"/>
		<polygon fill="#676767" points="45.109,26.333 28.5,56.697 65.348,37.71 		"/>
		<path fill="#717171" d="M65.348,37.71l23.09-1.76l7.824-5.117c-0.188-0.459-0.383-0.914-0.586-1.365L82.32,28.964L65.348,37.71z"
			/>
		<path fill="#949494" d="M82.32,28.964l13.355,0.504C87.879,12.007,70.363-0.165,50.004-0.165c-0.773,0-1.543,0.02-2.309,0.055
			v0.004L82.32,28.964z"/>
		<path fill="#BDBDBD" d="M26.273,15.921L47.695-0.106L47.691-0.11C34.98,0.468,23.508,5.792,15.004,14.132l0.043,0.135
			L26.273,15.921z"/>
		<path fill="#5D5D5D" d="M90.289,42.982l8.578-3.768c-0.625-2.895-1.504-5.695-2.605-8.381l-7.824,5.117L90.289,42.982z"/>
		<path fill="#616161" d="M91.496,47.55l7.957-5.123c-0.16-1.082-0.355-2.154-0.586-3.213l-8.578,3.768L91.496,47.55z"/>
		<path fill="#747474" d="M67.188,62.467l16.676,11.748l15.633-31.481c-0.012-0.102-0.027-0.205-0.043-0.307l-7.957,5.123
			L67.188,62.467z"/>
		<path fill="#808080" d="M84.785,85.748C94.168,76.66,100,63.93,100,49.835c0-2.41-0.172-4.781-0.504-7.102L83.863,74.215
			L84.785,85.748z"/>
		<path fill="#949494" d="M40.891,99l-0.004,0.004c2.957,0.545,6.004,0.832,9.117,0.832c13.52,0,25.781-5.369,34.781-14.088
			l-0.922-11.533L40.891,99z"/>
		<polygon fill="#7C7C7C" points="83.863,74.215 67.188,62.467 40.891,99 		"/>
		<path fill="#929292" d="M30.039,82.711l0.621,13.246c3.246,1.361,6.668,2.391,10.223,3.047L40.891,99L30.039,82.711z"/>
		<path fill="#7E7E7E" d="M23.207,92.055c2.359,1.5,4.848,2.809,7.453,3.902l-0.621-13.246L23.207,92.055z"/>
		<path fill="#7E7E7E" d="M28.5,56.697c0,0,18.469,4.953,39.203-7.897l20.734-12.85l-23.09,1.76L28.5,56.697z"/>
		<path fill="#676767" d="M20.219,79.797l9.023-10.836c0.34,0.113,0.684,0.217,1.027,0.316c0.102,0.029,0.199,0.057,0.297,0.084
			c0.27,0.074,0.535,0.143,0.801,0.209c0.086,0.023,0.176,0.047,0.266,0.068c0.344,0.082,0.688,0.158,1.027,0.229
			c0.066,0.014,0.133,0.023,0.199,0.037c0.285,0.057,0.57,0.109,0.855,0.156c0.102,0.018,0.207,0.035,0.309,0.053
			c0.289,0.043,0.574,0.086,0.859,0.125c0.066,0.008,0.129,0.018,0.191,0.025c0.348,0.045,0.691,0.08,1.035,0.115
			c0.09,0.008,0.18,0.014,0.27,0.021c0.266,0.025,0.535,0.045,0.805,0.061c0.098,0.008,0.195,0.014,0.293,0.02
			c0.348,0.02,0.691,0.035,1.035,0.047c0.262,0.006,0.52,0.01,0.777,0.012c0.082,0,0.164,0,0.246,0c0.176,0,0.355,0,0.531-0.004
			c0.098,0,0.191-0.002,0.285-0.004c0.168-0.004,0.336-0.008,0.504-0.012c0.094-0.004,0.188-0.008,0.281-0.01
			c0.18-0.008,0.355-0.016,0.535-0.025c0.078-0.004,0.156-0.008,0.234-0.012c0.254-0.016,0.508-0.031,0.762-0.051
			c0.031-0.002,0.062-0.006,0.098-0.008c0.219-0.018,0.441-0.035,0.66-0.057c0.086-0.008,0.172-0.018,0.254-0.025
			c0.172-0.018,0.34-0.035,0.508-0.053c0.094-0.01,0.188-0.021,0.281-0.033c0.16-0.018,0.324-0.039,0.484-0.059
			c0.094-0.012,0.18-0.023,0.27-0.035c0.184-0.023,0.359-0.049,0.539-0.074c0.07-0.012,0.137-0.02,0.207-0.031
			c0.246-0.035,0.488-0.074,0.734-0.115c0.051-0.008,0.102-0.018,0.156-0.025c0.191-0.031,0.383-0.066,0.574-0.1
			c0.086-0.016,0.172-0.033,0.254-0.049c0.16-0.029,0.316-0.059,0.477-0.09c0.09-0.018,0.18-0.035,0.27-0.053
			c0.156-0.031,0.312-0.064,0.465-0.098c0.086-0.018,0.172-0.033,0.258-0.053c0.176-0.039,0.355-0.078,0.531-0.117
			c0.059-0.014,0.117-0.025,0.172-0.039c0.234-0.053,0.465-0.107,0.695-0.164c0.062-0.014,0.121-0.031,0.184-0.045
			c0.168-0.043,0.34-0.084,0.508-0.127c0.082-0.021,0.164-0.043,0.246-0.064c0.148-0.039,0.297-0.078,0.441-0.117
			c0.086-0.023,0.172-0.045,0.258-0.07c0.145-0.039,0.289-0.08,0.434-0.121c0.078-0.021,0.156-0.045,0.234-0.066
			c0.18-0.051,0.355-0.104,0.531-0.154c0.043-0.012,0.086-0.025,0.125-0.039c0.219-0.062,0.43-0.129,0.645-0.195
			c0.066-0.02,0.129-0.041,0.195-0.061c0.148-0.047,0.297-0.094,0.441-0.143c0.082-0.023,0.16-0.051,0.238-0.076
			c0.133-0.043,0.266-0.088,0.395-0.131c0.082-0.027,0.16-0.053,0.238-0.08c0.137-0.045,0.27-0.092,0.402-0.137
			c0.07-0.025,0.141-0.049,0.211-0.074c0.18-0.062,0.355-0.127,0.531-0.189c0.02-0.006,0.043-0.014,0.062-0.021
			c0.195-0.07,0.391-0.143,0.582-0.213c0.062-0.023,0.125-0.047,0.188-0.07c0.129-0.049,0.258-0.098,0.387-0.146
			c0.07-0.027,0.141-0.053,0.211-0.08c0.121-0.047,0.238-0.094,0.359-0.141c0.066-0.027,0.133-0.053,0.203-0.08
			c0.125-0.049,0.25-0.1,0.371-0.146c0.055-0.025,0.113-0.047,0.172-0.07c0.176-0.072,0.348-0.143,0.52-0.213
			c0.02-0.01,0.039-0.018,0.062-0.027c0.152-0.062,0.301-0.127,0.449-0.189c0.059-0.023,0.113-0.047,0.168-0.072
			c0.113-0.047,0.219-0.094,0.328-0.141c0.062-0.027,0.125-0.055,0.188-0.084c0.102-0.043,0.203-0.088,0.305-0.131
			c0.059-0.027,0.117-0.053,0.172-0.08c0.109-0.047,0.215-0.096,0.32-0.143c0.047-0.021,0.094-0.043,0.141-0.064
			c0.148-0.066,0.293-0.133,0.438-0.199c0.027-0.016,0.059-0.027,0.086-0.043c0.117-0.053,0.227-0.105,0.34-0.156
			c0.047-0.025,0.098-0.047,0.145-0.07c0.09-0.043,0.18-0.086,0.266-0.127c0.051-0.025,0.102-0.049,0.152-0.074
			c0.082-0.041,0.164-0.08,0.246-0.119c0.047-0.023,0.094-0.047,0.141-0.07c0.09-0.043,0.176-0.088,0.266-0.133
			c0.031-0.016,0.062-0.031,0.094-0.047c0.117-0.059,0.234-0.117,0.344-0.172c0.031-0.016,0.059-0.031,0.09-0.047
			c0.082-0.041,0.16-0.082,0.238-0.123c0.039-0.02,0.078-0.039,0.113-0.059c0.066-0.035,0.133-0.068,0.195-0.102
			c0.039-0.02,0.078-0.041,0.113-0.061c0.062-0.033,0.125-0.064,0.184-0.098c0.035-0.016,0.066-0.035,0.098-0.051
			c0.07-0.037,0.137-0.074,0.203-0.109c0.02-0.01,0.039-0.02,0.055-0.029c0.082-0.045,0.16-0.088,0.234-0.129
			c0.023-0.014,0.047-0.025,0.07-0.037c0.051-0.029,0.105-0.059,0.152-0.086c0.023-0.014,0.047-0.025,0.07-0.039
			c0.043-0.023,0.082-0.047,0.121-0.068c0.027-0.014,0.051-0.027,0.074-0.041c0.035-0.021,0.07-0.041,0.105-0.061
			c0.02-0.01,0.039-0.021,0.059-0.033c0.043-0.025,0.086-0.049,0.125-0.07c0.004-0.004,0.008-0.008,0.016-0.008
			c0.043-0.027,0.082-0.051,0.117-0.07c0.012-0.008,0.02-0.012,0.031-0.018c0.023-0.014,0.047-0.029,0.066-0.041
			c0.008-0.004,0.016-0.01,0.023-0.014c0.016-0.01,0.031-0.018,0.047-0.027c0.008-0.006,0.016-0.01,0.023-0.014
			c0.008-0.006,0.016-0.012,0.023-0.014c0.004-0.002,0.008-0.006,0.012-0.008c0.008-0.004,0.012-0.008,0.012-0.008L91.496,47.55
			l-1.207-4.568l-1.852-7.031L67.703,48.8C46.969,61.65,28.5,56.697,28.5,56.697c-34.492-11.202-13.453-42.43-13.453-42.43
			l-0.172-0.01C7.039,21.994,1.75,32.298,0.363,43.806C2.668,74.846,20.219,79.797,20.219,79.797z"/>
		<path fill="#858585" d="M30.039,82.711L40.891,99l26.297-36.533c0,0-0.004,0.004-0.012,0.008
			c-0.004,0.002-0.008,0.006-0.012,0.008c-0.008,0.002-0.012,0.006-0.023,0.014c-0.008,0.004-0.016,0.008-0.023,0.014
			c-0.016,0.01-0.031,0.018-0.047,0.027c-0.008,0.004-0.016,0.01-0.023,0.014c-0.02,0.012-0.043,0.027-0.066,0.041
			c-0.012,0.006-0.02,0.01-0.031,0.018c-0.035,0.02-0.074,0.043-0.117,0.07c-0.008,0-0.012,0.004-0.016,0.008
			c-0.039,0.021-0.082,0.045-0.125,0.07c-0.02,0.012-0.039,0.023-0.059,0.033c-0.035,0.02-0.07,0.039-0.105,0.061
			c-0.023,0.014-0.047,0.027-0.074,0.041c-0.039,0.021-0.078,0.045-0.121,0.068c-0.023,0.014-0.047,0.025-0.07,0.039
			c-0.047,0.027-0.102,0.057-0.152,0.086c-0.023,0.012-0.047,0.023-0.07,0.037c-0.074,0.041-0.152,0.084-0.234,0.129
			c-0.016,0.01-0.035,0.02-0.055,0.029c-0.066,0.035-0.133,0.072-0.203,0.109c-0.031,0.016-0.062,0.035-0.098,0.051
			c-0.059,0.033-0.121,0.064-0.184,0.098c-0.035,0.02-0.074,0.041-0.113,0.061c-0.062,0.033-0.129,0.066-0.195,0.102
			c-0.035,0.02-0.074,0.039-0.113,0.059c-0.078,0.041-0.156,0.082-0.238,0.123c-0.031,0.016-0.059,0.031-0.09,0.047
			c-0.109,0.055-0.227,0.113-0.344,0.172c-0.031,0.016-0.062,0.031-0.094,0.047c-0.09,0.045-0.176,0.09-0.266,0.133
			c-0.047,0.023-0.094,0.047-0.141,0.07c-0.082,0.039-0.164,0.078-0.246,0.119c-0.051,0.025-0.102,0.049-0.152,0.074
			c-0.086,0.041-0.176,0.084-0.266,0.127c-0.047,0.023-0.098,0.045-0.145,0.07c-0.113,0.051-0.223,0.104-0.34,0.156
			c-0.027,0.016-0.059,0.027-0.086,0.043c-0.145,0.066-0.289,0.133-0.438,0.199c-0.047,0.021-0.094,0.043-0.141,0.064
			c-0.105,0.047-0.211,0.096-0.32,0.143c-0.055,0.027-0.113,0.053-0.172,0.08c-0.102,0.043-0.203,0.088-0.305,0.131
			c-0.062,0.029-0.125,0.057-0.188,0.084c-0.109,0.047-0.215,0.094-0.328,0.141c-0.055,0.025-0.109,0.049-0.168,0.072
			c-0.148,0.062-0.297,0.127-0.449,0.189c-0.023,0.01-0.043,0.018-0.062,0.027c-0.172,0.07-0.344,0.141-0.52,0.213
			c-0.059,0.023-0.117,0.045-0.172,0.07c-0.121,0.047-0.246,0.098-0.371,0.146c-0.07,0.027-0.137,0.053-0.203,0.08
			c-0.121,0.047-0.238,0.094-0.359,0.141c-0.07,0.027-0.141,0.053-0.211,0.08c-0.129,0.049-0.258,0.098-0.387,0.146
			c-0.062,0.023-0.125,0.047-0.188,0.07c-0.191,0.07-0.387,0.143-0.582,0.213c-0.02,0.008-0.043,0.016-0.062,0.021
			c-0.176,0.062-0.352,0.127-0.531,0.189c-0.07,0.025-0.141,0.049-0.211,0.074c-0.133,0.045-0.266,0.092-0.402,0.137
			c-0.078,0.027-0.156,0.053-0.238,0.08c-0.129,0.043-0.262,0.088-0.395,0.131c-0.078,0.025-0.156,0.053-0.238,0.076
			c-0.145,0.049-0.293,0.096-0.441,0.143c-0.066,0.02-0.129,0.041-0.195,0.061c-0.215,0.066-0.426,0.133-0.645,0.195
			c-0.039,0.014-0.082,0.027-0.125,0.039c-0.176,0.051-0.352,0.104-0.531,0.154c-0.078,0.021-0.156,0.045-0.234,0.066
			c-0.145,0.041-0.289,0.082-0.434,0.121c-0.086,0.025-0.172,0.047-0.258,0.07c-0.145,0.039-0.293,0.078-0.441,0.117
			c-0.082,0.021-0.164,0.043-0.246,0.064c-0.168,0.043-0.34,0.084-0.508,0.127c-0.062,0.014-0.121,0.031-0.184,0.045
			c-0.23,0.057-0.461,0.111-0.695,0.164c-0.055,0.014-0.113,0.025-0.172,0.039c-0.176,0.039-0.355,0.078-0.531,0.117
			c-0.086,0.02-0.172,0.035-0.258,0.053c-0.152,0.033-0.309,0.066-0.465,0.098c-0.09,0.018-0.18,0.035-0.27,0.053
			c-0.16,0.031-0.316,0.061-0.477,0.09c-0.082,0.016-0.168,0.033-0.254,0.049c-0.191,0.033-0.383,0.068-0.574,0.1
			c-0.055,0.008-0.105,0.018-0.156,0.025c-0.246,0.041-0.488,0.08-0.734,0.115c-0.07,0.012-0.137,0.02-0.207,0.031
			c-0.18,0.025-0.355,0.051-0.539,0.074c-0.09,0.012-0.176,0.023-0.27,0.035c-0.16,0.02-0.324,0.041-0.484,0.059
			c-0.094,0.012-0.188,0.023-0.281,0.033c-0.168,0.018-0.336,0.035-0.508,0.053c-0.082,0.008-0.168,0.018-0.254,0.025
			c-0.219,0.021-0.441,0.039-0.66,0.057c-0.035,0.002-0.066,0.006-0.098,0.008c-0.254,0.02-0.508,0.035-0.762,0.051
			c-0.078,0.004-0.156,0.008-0.234,0.012c-0.18,0.01-0.355,0.018-0.535,0.025c-0.094,0.002-0.188,0.006-0.281,0.01
			c-0.168,0.004-0.336,0.008-0.504,0.012c-0.094,0.002-0.188,0.004-0.285,0.004c-0.176,0.004-0.355,0.004-0.531,0.004
			c-0.082,0-0.164,0-0.246,0c-0.258-0.002-0.516-0.006-0.777-0.012L30.039,82.711z"/>
		<path fill="#7E7E7E" d="M20.219,79.797c0,0-17.551-4.951-19.855-35.991C0.129,45.783,0,47.794,0,49.835
			c0,14.124,5.859,26.877,15.277,35.969l0.012-0.004L20.219,79.797z"/>
		<path fill="#949494" d="M15.047,14.267c0,0-21.039,31.229,13.453,42.43l-2.227-40.776L15.047,14.267z"/>
		<path fill="#5C5C5C" d="M29.242,68.961l-9.023,10.836c6.055,2.467,9.82,2.914,9.82,2.914L29.242,68.961z"/>
		<path fill="#6E6E6E" d="M20.219,79.797l-4.93,6.004l0.008,0.027c2.418,2.328,5.066,4.418,7.91,6.227l6.832-9.344
			C30.039,82.711,26.273,82.264,20.219,79.797z"/>
		<path fill="#7E7E7E" d="M38.512,70.527L38.512,70.527c-0.344-0.012-0.688-0.027-1.035-0.047c-0.098-0.006-0.195-0.012-0.293-0.02
			c-0.27-0.016-0.539-0.035-0.805-0.061c-0.09-0.008-0.18-0.014-0.27-0.021c-0.344-0.035-0.688-0.07-1.035-0.115
			c-0.062-0.008-0.125-0.018-0.191-0.025c-0.285-0.039-0.57-0.082-0.859-0.125c-0.102-0.018-0.207-0.035-0.309-0.053
			c-0.285-0.047-0.57-0.1-0.855-0.156c-0.066-0.014-0.133-0.023-0.199-0.037c-0.34-0.07-0.684-0.146-1.027-0.229
			c-0.09-0.021-0.18-0.045-0.266-0.068c-0.266-0.066-0.531-0.135-0.801-0.209c-0.098-0.027-0.195-0.055-0.297-0.084
			c-0.344-0.1-0.688-0.203-1.027-0.316l0.797,13.75L38.512,70.527z"/>
	</g>
</g>
</svg>
