<?xml version="1.0" encoding="utf-8"?>
<!-- Generator: Adobe Illustrator 16.0.0, SVG Export Plug-In . SVG Version: 6.00 Build 0)  -->
<!DOCTYPE svg PUBLIC "-//W3C//DTD SVG 1.1//EN" "http://www.w3.org/Graphics/SVG/1.1/DTD/svg11.dtd">
<svg version="1.1" id="Layer_1" xmlns="http://www.w3.org/2000/svg" xmlns:xlink="http://www.w3.org/1999/xlink" x="0px" y="0px"
	 width="100px" height="100px" viewBox="0 0 100 100" enable-background="new 0 0 100 100" xml:space="preserve">
<g>
	<path fill="#FF0000" d="M100,49.945c0,27.59-22.383,49.953-50,49.953c-27.613,0-50-22.363-50-49.953C0,22.359,22.387,0,50,0
		C77.617,0,100,22.359,100,49.945z"/>
	<g>
		<path fill="none" d="M58.031,65.312l0.941,1.961C58.414,66.039,58.031,65.312,58.031,65.312z"/>
		<polygon fill="none" points="94.41,73.02 94.41,73.02 68.25,59.695 		"/>
		<polygon fill="none" points="31.867,66.426 31.867,66.426 31.867,66.426 		"/>
		
			<rect x="60.348" y="13.803" transform="matrix(-0.9181 0.3964 -0.3964 -0.9181 140.5123 -1.4337)" fill="none" width="20.113" height="0"/>
		<path fill="#FF3301" d="M40.473,7.898L30.457,4.062c-4.883,2.07-9.367,4.898-13.309,8.336l-6.934,19.996L40.473,7.898z"/>
		<path fill="#CC0000" d="M10.215,32.395l23.43-4.637c0,0-0.863-12.414,10.426-18.789l11.621-8.547
			c-1.867-0.211-3.766-0.32-5.688-0.32c-6.938,0-13.543,1.406-19.547,3.961l10.016,3.836L10.215,32.395z"/>
		<path fill="#990000" d="M40.227,58.383c0,0-5.664-30.602,16-30.062l23.93,0.59l2.312,0.059l-1.766-1.102L61.172,17.789
			L44.07,8.969c-11.289,6.375-10.426,18.789-10.426,18.789l1.918,28.406L40.227,58.383z"/>
		<polygon fill="#990000" points="61.172,17.789 61.172,17.789 61.172,17.789 		"/>
		<polygon fill="#990000" points="45.547,53.434 45.547,53.43 40.227,58.383 		"/>
		<path fill="#FF3333" d="M40.227,58.383l5.32-4.953c-0.422-1.734-0.648-3.547-0.648-5.414c0-8.406,4.551-15.746,11.328-19.695
			C34.562,27.781,40.227,58.383,40.227,58.383z"/>
		<polygon fill="#CC0000" points="82.77,29.156 68.25,59.695 94.41,73.02 94.41,73.016 82.93,29.258 		"/>
		<path fill="#CC0000" d="M53.75,42.547c0-5.422,4.395-9.812,9.82-9.812c3.648,0,6.832,1.992,8.523,4.938
			c5.512-4.508,9.691-7.898,10.586-8.57l-0.211-0.133l-2.312-0.059l-23.93-0.59c-6.777,3.949-11.328,11.289-11.328,19.695
			c0,1.867,0.227,3.68,0.648,5.414v0.004l-5.32,4.949l-4.664-2.219l0.766,10.891c0,0,10.043-8.273,20.797-17.109
			C55.059,48.148,53.75,45.5,53.75,42.547z"/>
		<path fill="#AD0000" d="M82.93,29.258l11.48,43.758c3.574-6.875,5.59-14.688,5.59-22.969c0-3.734-0.414-7.375-1.191-10.879
			L82.93,29.258z"/>
		<path fill="#FF0000" d="M63.57,32.734c-5.426,0-9.82,4.391-9.82,9.812c0,2.953,1.309,5.602,3.375,7.398
			c5.172-4.242,10.508-8.625,14.969-12.273C70.402,34.727,67.219,32.734,63.57,32.734z"/>
		<path fill="#AD0000" d="M80.703,27.867l1.766,1.102l0.211,0.133c0.105-0.086,0.168-0.125,0.176-0.125
			c0,0,6.523-3.812,13.273,1.766c-0.551-1.312-1.16-2.598-1.816-3.852L80.703,27.867z"/>
		<polygon fill="#AD0000" points="82.77,29.156 82.93,29.258 98.809,39.168 98.809,39.168 82.855,28.977 		"/>
		<path fill="#FF0000" d="M82.855,28.977c-0.008,0-0.07,0.039-0.176,0.125c-0.895,0.672-5.074,4.062-10.586,8.57
			c-4.461,3.648-9.797,8.031-14.969,12.273c-10.754,8.836-20.797,17.109-20.797,17.109l21.703-1.742l10.219-5.617l14.52-30.539
			L82.855,28.977z"/>
		<path fill="#FF0000" d="M82.855,28.977l15.953,10.191c-0.648-2.91-1.547-5.73-2.68-8.426
			C89.379,25.164,82.855,28.977,82.855,28.977z"/>
		<path fill="#D10000" d="M61.172,17.789l19.531,10.078l13.609-0.977c-3.543-6.75-8.578-12.586-14.676-17.074L61.172,17.789
			L61.172,17.789z"/>
		<path fill="#FF0000" d="M61.172,17.789L61.172,17.789l18.465-7.973C72.781,4.766,64.594,1.43,55.691,0.422L44.07,8.969
			L61.172,17.789z"/>
		<path fill="#990000" d="M17.148,12.398C8.965,19.531,3.129,29.281,0.949,40.344l9.266-7.949L17.148,12.398z"/>
		<path fill="#FF3301" d="M0.949,40.344C0.328,43.484,0,46.727,0,50.047c0,7.086,1.484,13.828,4.145,19.934l6.07-37.586
			L0.949,40.344z"/>
		<path fill="#CC0000" d="M4.145,69.98c2.57,5.895,6.246,11.191,10.762,15.645l-4.691-53.23L4.145,69.98z"/>
		<path fill="#FF3301" d="M10.215,32.395l17.41,23.918c0,0,3.449,4.812,4.242,10.113l0,0l4.461,0.629l-0.766-10.891L10.215,32.395z"
			/>
		<path fill="#FF3333" d="M36.328,67.055l-4.492-0.664l10.48,33.02c2.363,0.363,4.777,0.559,7.234,0.582L40.18,76.641L36.328,67.055
			z"/>
		<path fill="#CC0000" d="M31.867,66.426c0.371,2.492,0.156,5.09-1.281,7.355c-3.41,5.375-8.992,12.453-11.477,15.547
			c6.598,5.184,14.535,8.746,23.207,10.082L31.867,66.426L31.867,66.426z"/>
		<polygon fill="#BA0000" points="33.645,27.758 10.215,32.395 35.562,56.164 		"/>
		<path fill="#990000" d="M31.867,66.426L31.867,66.426c-0.793-5.301-4.242-10.113-4.242-10.113l-17.41-23.918l4.691,53.23
			c1.332,1.305,2.734,2.547,4.203,3.703c2.484-3.094,8.066-10.172,11.477-15.547C32.023,71.516,32.238,68.918,31.867,66.426z"/>
		<path fill="#CC0000" d="M70.348,90.648c-3.109,5.277-8.098,7.555-10.941,8.461c11.664-2.215,21.898-8.477,29.168-17.277
			C80.527,89.367,70.348,90.648,70.348,90.648L70.348,90.648z"/>
		<path fill="#CC0000" d="M62.18,90.637c-14.211-1.285-22-13.996-22-13.996l9.371,23.352c0.152,0,0.301,0.008,0.453,0.008
			c0.723,0,1.441-0.023,2.156-0.051C57.801,98.062,60.797,94.633,62.18,90.637z"/>
		<path fill="#AD0000" d="M40.18,76.641c0,0,7.789,12.711,22,13.996c2.879-8.301-1.242-19.02-3.207-23.363l-0.941-1.961
			l-21.703,1.742L40.18,76.641z"/>
		<path fill="#AD0000" d="M68.25,59.695c6.688,15.52,5.551,25.086,2.098,30.953l0,0c0,0,10.18-1.281,18.227-8.816
			c2.242-2.711,4.199-5.668,5.836-8.812L68.25,59.695z"/>
		<path fill="#FF3333" d="M70.348,90.648c3.453-5.867,4.59-15.434-2.098-30.953l-10.219,5.617c0,0,0.383,0.727,0.941,1.961
			c1.965,4.344,6.086,15.062,3.207,23.363c-1.383,3.996-4.379,7.426-10.02,9.312c2.465-0.105,4.887-0.387,7.246-0.84
			C62.25,98.203,67.238,95.926,70.348,90.648z"/>
	</g>
</g>
</svg>
