<?xml version="1.0" encoding="utf-8"?>
<!-- Generator: Adobe Illustrator 16.0.0, SVG Export Plug-In . SVG Version: 6.00 Build 0)  -->
<!DOCTYPE svg PUBLIC "-//W3C//DTD SVG 1.1//EN" "http://www.w3.org/Graphics/SVG/1.1/DTD/svg11.dtd">
<svg version="1.1" id="Layer_1" xmlns="http://www.w3.org/2000/svg" xmlns:xlink="http://www.w3.org/1999/xlink" x="0px" y="0px"
	 width="100px" height="100px" viewBox="0 0 100 100" enable-background="new 0 0 100 100" xml:space="preserve">
<g>
	<path fill="#8BBBDC" d="M100,50c0-27.617-22.383-50-49.996-50C22.387,0,0,22.383,0,50c0,27.609,22.387,50,50.004,50
		C77.617,100,100,77.609,100,50z"/>
	<g>
		<path fill="none" d="M4.902,71.555l-0.102-0.164c0.031,0.07,0.059,0.133,0.09,0.195l0.016-0.023
			C4.906,71.562,4.906,71.562,4.902,71.555z"/>
		<path fill="none" d="M99.227,41.289l0.02,0.008c0-0.008-0.004-0.016-0.004-0.023L99.227,41.289z"/>
		<polygon fill="none" points="20.59,90.43 20.586,90.43 20.59,90.43 		"/>
		<path fill="none" d="M79.789,90.156l-0.012,0.016c0.004-0.008,0.012-0.016,0.02-0.016H79.789z"/>
		<path fill="none" d="M95.133,71.547c0.008-0.016,0.016-0.031,0.023-0.047l-0.039,0.023L95.133,71.547z"/>
		<path fill="none" d="M65.469,2.438c-0.062-0.016-0.121-0.039-0.184-0.055l-0.008,0.016L65.469,2.438z"/>
		<polygon fill="none" points="90.727,20.984 90.723,20.984 90.715,20.984 		"/>
		<path fill="none" d="M32.109,3.328c0.004-0.008,0.012-0.023,0.02-0.039c-0.004,0.008-0.004,0.008-0.004,0.008L32.109,3.328
			L32.109,3.328z"/>
		<polygon fill="#8BBBDB" points="31.988,77.102 31.996,77.094 31.988,77.094 		"/>
		<path fill="#8BBBDB" d="M4.906,71.562L4.906,71.562l-0.004-0.008C4.906,71.562,4.906,71.562,4.906,71.562z"/>
		<path fill="#ADD6FF" d="M32.109,3.328l-0.008,0.016C32.102,3.344,32.105,3.336,32.109,3.328L32.109,3.328z"/>
		<path opacity="0.1" fill="#0066FF" d="M32.109,3.328l-0.008,0.016C32.102,3.344,32.105,3.336,32.109,3.328L32.109,3.328z"/>
		<polygon fill="#8BBBDB" points="31.98,77.094 31.988,77.102 31.988,77.102 31.988,77.094 		"/>
		<polygon opacity="0.3" fill="#0066FF" points="31.98,77.094 31.988,77.102 31.988,77.102 31.988,77.094 		"/>
		<path fill="#89C2FF" d="M24.391,20.641l7.707-17.289l0.004-0.008l0.008-0.016l0.016-0.031c-5.938,2.273-11.328,5.641-15.926,9.859
			L24.391,20.641z"/>
		<path fill="#9BCBFF" d="M32.102,3.344l-0.004,0.008l-7.707,17.289L65.277,2.398l0.008-0.016C60.469,0.836,55.332,0,50.004,0
			C43.703,0,37.68,1.164,32.129,3.289c-0.008,0.016-0.016,0.031-0.02,0.039S32.102,3.344,32.102,3.344z"/>
		<polygon fill="#C1E3F7" points="56.848,26.922 65.277,2.398 24.391,20.641 		"/>
		<polygon fill="#ADD7F8" points="56.848,26.922 24.391,20.641 69.727,59.391 		"/>
		<path fill="#7DB2DF" d="M24.391,20.641l-8.191-7.484C6.586,21.984,0.441,34.516,0.027,48.492V48.5L24.391,20.641z"/>
		<polygon fill="#ADD7F8" points="0.027,48.5 12.5,58.648 24.391,20.641 		"/>
		<path fill="#9BC7EA" d="M56.848,26.922l33.867-5.938l0,0h0.008C84.57,12.359,75.75,5.781,65.469,2.438l-0.191-0.039L56.848,26.922
			z"/>
		<polygon fill="#8CBDEC" points="90.715,20.984 56.848,26.922 69.727,59.391 		"/>
		<path fill="#7DB2DF" d="M90.715,20.984L69.727,59.391l29.5-18.102l0.016-0.016c-1.312-7.461-4.281-14.359-8.516-20.289H90.715
			L90.715,20.984z"/>
		<path fill="#ADD7F8" d="M69.727,59.391l25.391,12.133l0.039-0.023C98.262,64.984,100,57.695,100,50
			c0-2.969-0.258-5.875-0.754-8.703l-0.02-0.008L69.727,59.391z"/>
		<polygon fill="#7DB2DF" points="95.117,71.523 69.727,59.391 71.145,72.531 		"/>
		<path fill="#70AAE2" d="M95.117,71.523l-23.973,1.008l8.645,17.625h0.008c6.508-4.844,11.801-11.227,15.336-18.609L95.117,71.523z
			"/>
		<path fill="#8CBDEC" d="M79.777,90.172l0.012-0.016l-8.645-17.625L35.316,97.805C39.961,99.227,44.891,100,50.004,100
			C61.156,100,71.457,96.344,79.777,90.172z"/>
		<path fill="#8BBBDC" d="M24.391,20.641l6.316,44.898c19.297,4.883,39.02-6.148,39.02-6.148L24.391,20.641z"/>
		<path fill="#8BBBDC" d="M31.988,77.102l-0.008-0.008c-12.926,1.695-22.008-2.258-27.074-5.531l0,0l-0.016,0.023
			c3.602,7.516,9.027,13.984,15.695,18.844h0.004L31.988,77.102z"/>
		<path fill="#9BC7EA" d="M71.145,72.531l-1.418-13.141L35.105,97.742c0.07,0.023,0.141,0.039,0.211,0.062L71.145,72.531z"/>
		<path fill="#9BC7EA" d="M30.707,65.539L4.906,71.562c5.066,3.273,14.148,7.227,27.074,5.531c0.004,0,0.004,0,0.004,0h0.012
			l18.562-7.508c6.316-1.414,19.168-10.195,19.168-10.195S50.004,70.422,30.707,65.539z"/>
		<path fill="#61A1E6" d="M31.988,77.102L20.59,90.43l0,0c4.293,3.133,9.102,5.594,14.273,7.234L31.988,77.102z"/>
		<path fill="#C1E3F7" d="M69.727,59.391c0,0-12.852,8.781-19.168,10.195l-18.562,7.508l-0.008,0.008l0,0l2.875,20.562
			c0.082,0.023,0.16,0.055,0.242,0.078L69.727,59.391z"/>
		<path fill="#8CBDEC" d="M4.902,71.555l0.004,0.008l25.801-6.023l-6.316-44.898L12.5,58.648L0.027,48.5v-0.008
			C0.012,48.992,0,49.492,0,50c0,7.656,1.727,14.906,4.801,21.391L4.902,71.555z"/>
	</g>
</g>
</svg>
