<?xml version="1.0" encoding="utf-8"?>
<!-- Generator: Adobe Illustrator 16.0.0, SVG Export Plug-In . SVG Version: 6.00 Build 0)  -->
<!DOCTYPE svg PUBLIC "-//W3C//DTD SVG 1.1//EN" "http://www.w3.org/Graphics/SVG/1.1/DTD/svg11.dtd">
<svg version="1.1" id="Layer_1" xmlns="http://www.w3.org/2000/svg" xmlns:xlink="http://www.w3.org/1999/xlink" x="0px" y="0px"
	 width="100px" height="100px" viewBox="0 0 100 100" enable-background="new 0 0 100 100" xml:space="preserve">
<g>
	<path fill="#FF5500" d="M100,50c0-27.613-22.387-50-50-50C22.383,0,0,22.387,0,50s22.383,50,50,50C77.613,100,100,77.613,100,50z"
		/>
	<g>
		<path fill="none" d="M25.352,6.582l-0.035-0.074c-0.207,0.117-0.414,0.238-0.621,0.359l0.531-0.211L25.352,6.582z"/>
		<polygon fill="#FF9900" points="26.051,58.633 32.59,68.426 32.594,68.418 		"/>
		<polygon fill="#FF8E02" points="25.227,6.656 25.359,6.605 25.352,6.582 		"/>
		<polygon opacity="0.4" fill="#FF3300" points="25.227,6.656 25.359,6.605 25.352,6.582 		"/>
		<polygon fill="#DB4900" points="44.574,55.336 44.574,55.336 43.305,28.562 		"/>
		<path fill="#FF6305" d="M74.246,12.68l1.301-0.668C75.133,12.227,74.695,12.449,74.246,12.68z"/>
		<path opacity="0.5" fill="#C44302" d="M74.246,12.68l1.301-0.668C75.133,12.227,74.695,12.449,74.246,12.68z"/>
		<path fill="#FF6305" d="M77.922,10.797l1.051-0.539C78.688,10.402,78.332,10.586,77.922,10.797z"/>
		<path opacity="0.5" fill="#C44302" d="M77.922,10.797l1.051-0.539C78.688,10.402,78.332,10.586,77.922,10.797z"/>
		<path fill="#FF6305" d="M67.297,16.246c-0.359,0.184-0.707,0.363-1.047,0.535L67.297,16.246z"/>
		<path opacity="0.5" fill="#C44302" d="M67.297,16.246c-0.359,0.184-0.707,0.363-1.047,0.535L67.297,16.246z"/>
		<path fill="#FF6305" d="M71.41,14.133l2.34-1.199C72.992,13.32,72.207,13.727,71.41,14.133z"/>
		<path opacity="0.5" fill="#C44302" d="M71.41,14.133l2.34-1.199C72.992,13.32,72.207,13.727,71.41,14.133z"/>
		<path fill="#FF6305" d="M75.984,11.789l0.645-0.332C76.422,11.562,76.207,11.676,75.984,11.789z"/>
		<path opacity="0.5" fill="#C44302" d="M75.984,11.789l0.645-0.332C76.422,11.562,76.207,11.676,75.984,11.789z"/>
		<path fill="#FF6305" d="M69.328,15.203l1.805-0.926C70.531,14.586,69.926,14.898,69.328,15.203z"/>
		<path opacity="0.5" fill="#C44302" d="M69.328,15.203l1.805-0.926C70.531,14.586,69.926,14.898,69.328,15.203z"/>
		<path fill="#FF6305" d="M67.586,16.094l1.395-0.711C68.508,15.625,68.043,15.863,67.586,16.094z"/>
		<path opacity="0.5" fill="#C44302" d="M67.586,16.094l1.395-0.711C68.508,15.625,68.043,15.863,67.586,16.094z"/>
		<path fill="#FF6305" d="M79.262,10.109l0.328-0.168C79.504,9.984,79.395,10.039,79.262,10.109z"/>
		<path opacity="0.5" fill="#C44302" d="M79.262,10.109l0.328-0.168C79.504,9.984,79.395,10.039,79.262,10.109z"/>
		<path fill="#FF6305" d="M61.969,18.977l0.078-0.039C62.02,18.953,61.992,18.965,61.969,18.977z"/>
		<path opacity="0.5" fill="#C44302" d="M61.969,18.977l0.078-0.039C62.02,18.953,61.992,18.965,61.969,18.977z"/>
		<path fill="#FF6305" d="M61.5,19.219l0.242-0.125C61.637,19.148,61.555,19.191,61.5,19.219z"/>
		<path opacity="0.5" fill="#C44302" d="M61.5,19.219l0.242-0.125C61.637,19.148,61.555,19.191,61.5,19.219z"/>
		<path fill="#FF6305" d="M65.254,17.293l0.418-0.215C65.527,17.152,65.391,17.223,65.254,17.293z"/>
		<path opacity="0.5" fill="#C44302" d="M65.254,17.293l0.418-0.215C65.527,17.152,65.391,17.223,65.254,17.293z"/>
		<path fill="#FF6305" d="M62.887,18.508l2.211-1.133C64.242,17.812,63.484,18.199,62.887,18.508z"/>
		<path opacity="0.5" fill="#C44302" d="M62.887,18.508l2.211-1.133C64.242,17.812,63.484,18.199,62.887,18.508z"/>
		<path fill="#FF6305" d="M61.414,19.262l0.039-0.02C61.43,19.254,61.414,19.262,61.414,19.262z"/>
		<path opacity="0.5" fill="#C44302" d="M61.414,19.262l0.039-0.02C61.43,19.254,61.414,19.262,61.414,19.262z"/>
		<path opacity="0.3" fill="#990000" d="M25.383,6.559l0.066-0.125c-0.043,0.023-0.086,0.051-0.133,0.074l0.035,0.074L25.383,6.559z
			"/>
		<polygon fill="#FF8E02" points="25.352,6.582 25.359,6.605 25.359,6.605 25.383,6.559 		"/>
		<polygon opacity="0.4" fill="#FF3300" points="25.352,6.582 25.359,6.605 25.359,6.605 25.383,6.559 		"/>
		<polygon opacity="0.3" fill="#990000" points="25.352,6.582 25.359,6.605 25.359,6.605 25.383,6.559 		"/>
		<path fill="#FF8E02" d="M32.234,22.574c-0.008-0.004-0.012-0.008-0.012-0.008L32.234,22.574z"/>
		<path opacity="0.4" fill="#FF3300" d="M32.234,22.574c-0.008-0.004-0.012-0.008-0.012-0.008L32.234,22.574z"/>
		<path opacity="0.3" fill="#990000" d="M32.234,22.574c-0.008-0.004-0.012-0.008-0.012-0.008L32.234,22.574z"/>
		<path fill="#E15303" d="M79.59,9.941l-0.328,0.168c-0.086,0.043-0.184,0.094-0.289,0.148l-1.051,0.539
			c-0.387,0.195-0.82,0.418-1.293,0.66l-0.645,0.332c-0.141,0.074-0.289,0.148-0.438,0.223l-1.301,0.668
			c-0.164,0.086-0.328,0.172-0.496,0.254l-2.34,1.199c-0.094,0.051-0.184,0.098-0.277,0.145l-1.805,0.926
			c-0.117,0.059-0.23,0.117-0.348,0.18l-1.395,0.711c-0.098,0.051-0.191,0.102-0.289,0.152l-1.047,0.535
			c-0.195,0.102-0.391,0.199-0.578,0.297l-0.418,0.215c-0.055,0.027-0.105,0.055-0.156,0.082l-2.211,1.133
			c-0.332,0.168-0.613,0.312-0.84,0.43l-0.078,0.039c-0.086,0.043-0.16,0.082-0.227,0.117L61.5,19.219
			c-0.02,0.008-0.035,0.016-0.047,0.023l-0.039,0.02c14.867,6.676,25.238,9.055,25.238,9.055L79.785,9.84l0,0
			C79.754,9.855,79.688,9.891,79.59,9.941z"/>
		<path fill="#FF6305" d="M61.414,19.262c0,0,0.016-0.008,0.039-0.02c0.012-0.008,0.027-0.016,0.047-0.023
			c0.055-0.027,0.137-0.07,0.242-0.125c0.066-0.035,0.141-0.074,0.227-0.117c0.023-0.012,0.051-0.023,0.078-0.039
			c0.227-0.117,0.508-0.262,0.84-0.43c0.598-0.309,1.355-0.695,2.211-1.133c0.051-0.027,0.102-0.055,0.156-0.082
			c0.137-0.07,0.273-0.141,0.418-0.215c0.188-0.098,0.383-0.195,0.578-0.297c0.34-0.172,0.688-0.352,1.047-0.535
			c0.098-0.051,0.191-0.102,0.289-0.152c0.457-0.23,0.922-0.469,1.395-0.711c0.117-0.062,0.23-0.121,0.348-0.18
			c0.598-0.305,1.203-0.617,1.805-0.926c0.094-0.047,0.184-0.094,0.277-0.145c0.797-0.406,1.582-0.812,2.34-1.199
			c0.168-0.082,0.332-0.168,0.496-0.254c0.449-0.23,0.887-0.453,1.301-0.668c0.148-0.074,0.297-0.148,0.438-0.223
			c0.223-0.113,0.438-0.227,0.645-0.332c0.473-0.242,0.906-0.465,1.293-0.66c0.41-0.211,0.766-0.395,1.051-0.539
			c0.105-0.055,0.203-0.105,0.289-0.148c0.133-0.07,0.242-0.125,0.328-0.168c0.098-0.051,0.164-0.086,0.195-0.102
			C71.465,3.656,61.16,0,50,0c-3.184,0-6.297,0.301-9.312,0.867C49.23,13.074,61.414,19.262,61.414,19.262z"/>
		<path fill="#FF6602" d="M86.652,28.316L87.52,50c0,0,0.535,10.383-3.984,17.035l5.566,14.121C95.918,72.613,100,61.781,100,50
			c0-0.711-0.02-1.422-0.051-2.125L86.652,28.316z"/>
		<polygon fill="#FF5500" points="76.945,50.348 86.652,28.316 43.305,28.562 		"/>
		<path fill="#FF8E02" d="M61.414,19.262c0,0-12.184-6.188-20.727-18.395c-2.07,0.391-4.094,0.91-6.066,1.547l8.684,26.148
			L61.414,19.262z"/>
		<path fill="#FF6305" d="M86.652,28.316l9.988,3.637C93.203,23.078,87.309,15.43,79.785,9.84L86.652,28.316z"/>
		<path fill="#C44303" d="M86.652,28.316c0,0-10.371-2.379-25.238-9.055l-18.109,9.301L86.652,28.316z"/>
		<path fill="#FF5500" d="M86.652,28.316l13.297,19.559c-0.234-5.594-1.387-10.949-3.309-15.922L86.652,28.316z"/>
		<path fill="#E15400" d="M83.535,67.035c-6.184,11.898-37.379,21.668-37.379,21.668l42.945-7.547l0,0L83.535,67.035z"/>
		<path fill="#E04A00" d="M25.359,6.605l6.836,15.949l0.023,0.012c0,0,0.008,0.004,0.016,0.008l11.07,5.988L34.621,2.414
			c-3.211,1.035-6.281,2.387-9.172,4.02l-0.066,0.125L25.359,6.605z"/>
		<path fill="#FF9901" d="M76.945,50.348l6.59,16.688C88.055,60.383,87.52,50,87.52,50l-0.867-21.684L76.945,50.348z"/>
		<path fill="#C44303" d="M83.535,67.035l-6.59-16.688L46.156,88.703C46.156,88.703,77.352,78.934,83.535,67.035z"/>
		<path fill="#FF6602" d="M89.102,81.156l-42.945,7.547l0.922,11.211C48.047,99.969,49.02,100,50,100
			C65.828,100,79.938,92.641,89.102,81.156z"/>
		<path fill="#DB4900" d="M44.574,55.336c15.102-10.406,32.371-4.988,32.371-4.988L43.305,28.562L44.574,55.336z"/>
		<path fill="#FF9901" d="M32.594,68.418c0.086-0.176,3.648-7.348,11.98-13.082l-1.27-26.773l-17.254,30.07L32.594,68.418z"/>
		<path fill="#FF5301" d="M28.125,94.973c5.781,2.816,12.188,4.551,18.953,4.941l-0.922-11.211L28.125,94.973z"/>
		<path fill="#C73301" d="M76.945,50.348c0,0-17.27-5.418-32.371,4.988l1.582,33.367L76.945,50.348z"/>
		<path fill="#FF8E02" d="M26.051,58.633l1.895,33.242c-0.152-5.227,0.16-15.973,4.645-23.449L26.051,58.633z"/>
		<path fill="#E06B00" d="M44.574,55.336L44.574,55.336c-8.332,5.734-11.895,12.906-11.98,13.082l-0.004,0.008l13.566,20.277
			L44.574,55.336z"/>
		<path fill="#E06302" d="M46.156,88.703L32.59,68.426c-4.484,7.477-4.797,18.223-4.645,23.449l0.176,3.094h0.004L46.156,88.703z"/>
		<path fill="#FF6633" d="M27.945,91.875l-1.895-33.242L0.047,47.832C0.016,48.551,0,49.273,0,50
			c0,19.77,11.473,36.855,28.121,44.969L27.945,91.875z"/>
		<path fill="#DB4900" d="M26.051,58.633l17.254-30.07l-7.133,1.891c0,0-12.941,23.074-35.125,9.312
			c-0.543,2.617-0.883,5.312-1,8.066L26.051,58.633z"/>
		<path fill="#FF6A00" d="M14.848,24.523c13.445-2.051,21.324,5.93,21.324,5.93l7.133-1.891l-11.07-5.988l-0.016-0.008l-0.023-0.012
			L25.359,6.605l0,0l-0.133,0.051l-0.531,0.211c-9.77,5.742-17.414,14.711-21.473,25.441C5.074,28.938,8.504,25.488,14.848,24.523z"
			/>
		<path fill="#FF5500" d="M36.172,30.453L1.047,39.766l0,0C23.23,53.527,36.172,30.453,36.172,30.453z"/>
		<path fill="#FF8E02" d="M36.172,30.453c0,0-7.879-7.98-21.324-5.93c-6.344,0.965-9.773,4.414-11.625,7.785
			c-0.91,2.402-1.641,4.895-2.176,7.457L36.172,30.453z"/>
	</g>
</g>
</svg>
