<?xml version="1.0" encoding="utf-8"?>
<!-- Generator: Adobe Illustrator 16.0.0, SVG Export Plug-In . SVG Version: 6.00 Build 0)  -->
<!DOCTYPE svg PUBLIC "-//W3C//DTD SVG 1.1//EN" "http://www.w3.org/Graphics/SVG/1.1/DTD/svg11.dtd">
<svg version="1.1" id="Layer_1" xmlns="http://www.w3.org/2000/svg" xmlns:xlink="http://www.w3.org/1999/xlink" x="0px" y="0px"
	 width="26px" height="26px" viewBox="0 0 26 26" enable-background="new 0 0 26 26" xml:space="preserve">
<symbol  id="All:_Uncheckbox_over" viewBox="-9 -9 18 18">
	<g>
		<path fill="#404040" d="M3.855,9h-7.711C-6.697,9-9,6.697-9,3.856V-3.86C-9-6.699-6.697-9-3.855-9h7.712C6.699-9,9-6.699,9-3.857
			v7.717C9,6.697,6.699,9,3.855,9z M6.244-2.678c0-1.975-1.6-3.571-3.567-3.571h-5.353c-1.97,0-3.568,1.6-3.568,3.571v5.353
			c0,1.975,1.599,3.568,3.568,3.568h5.353c1.97,0,3.567-1.597,3.567-3.568V-2.678z"/>
	</g>
</symbol>
<use xlink:href="#All:_Uncheckbox_over"  width="18" height="18" id="XMLID_1_" x="-9" y="-9" transform="matrix(1.2222 0 0 -1.2222 13 13)" overflow="visible"/>
</svg>
